<svg width="96" height="96" viewBox="0 0 96 96" fill="none" xmlns="http://www.w3.org/2000/svg" role="img" aria-labelledby="title desc">
  <title id="title">Property Ledger Pro logo</title>
  <desc id="desc">A ledger page with apartment windows and a rent mark.</desc>
  <rect width="96" height="96" rx="22" fill="#0F766E"/>
  <path d="M24 22H61C67.075 22 72 26.925 72 33V74H33C28.029 74 24 69.971 24 65V22Z" fill="#F8FAFC"/>
  <path d="M32 22V65C32 69.971 28.029 74 23.058 74H33C28.029 74 24 69.971 24 65V22H32Z" fill="#CCFBF1"/>
  <path d="M38 34H45V42H38V34Z" fill="#0F766E"/>
  <path d="M51 34H58V42H51V34Z" fill="#0F766E"/>
  <path d="M38 49H45V57H38V49Z" fill="#0F766E"/>
  <path d="M51 49H58V57H51V49Z" fill="#0F766E"/>
  <path d="M36 66H61" stroke="#0F172A" stroke-width="4" stroke-linecap="round"/>
  <path d="M67 26C70.314 26 73 28.686 73 32V75" stroke="#0F172A" stroke-width="4" stroke-linecap="round"/>
  <circle cx="68" cy="29" r="11" fill="#F59E0B"/>
  <path d="M63 24H72M63 29H72M66 24C71 24 72 29 66 29H63L70 36" stroke="#0F172A" stroke-width="3" stroke-linecap="round" stroke-linejoin="round"/>
</svg>
